<svg width="24" height="16" viewBox="0 0 24 16" fill="none" xmlns="http://www.w3.org/2000/svg">
<rect width="24" height="16" fill="#F5F5F5"/>
<g id="Desktop - 16" clip-path="url(#clip0_0_1)">
<rect width="1440" height="6684" transform="translate(-217 -505)" fill="#F3F4F6"/>
<g id="Group 2477">
<rect id="Rectangle 1644" x="-217" y="-505" width="1440" height="955" fill="#101C26"/>
<g id="BAground">
<g id="Group 2476">
<circle id="Ellipse 389" cx="128.126" cy="-34.216" r="484.25" transform="rotate(-46.2913 128.126 -34.216)" stroke="#333842" stroke-opacity="0.24" stroke-width="1.5"/>
<circle id="Ellipse 390" cx="182.497" cy="-36.9552" r="484.25" transform="rotate(-46.2913 182.497 -36.9552)" stroke="#333842" stroke-opacity="0.24" stroke-width="1.5"/>
<circle id="Ellipse 391" cx="236.868" cy="-39.694" r="484.25" transform="rotate(-46.2913 236.868 -39.694)" stroke="#333842" stroke-opacity="0.24" stroke-width="1.5"/>
<circle id="Ellipse 392" cx="291.238" cy="-42.4342" r="484.25" transform="rotate(-46.2913 291.238 -42.4342)" stroke="#333842" stroke-opacity="0.24" stroke-width="1.5"/>
<circle id="Ellipse 393" cx="345.609" cy="-45.1735" r="484.25" transform="rotate(-46.2913 345.609 -45.1735)" stroke="#333842" stroke-opacity="0.24" stroke-width="1.5"/>
<circle id="Ellipse 394" cx="399.98" cy="-47.9127" r="484.25" transform="rotate(-46.2913 399.98 -47.9127)" stroke="#333842" stroke-opacity="0.24" stroke-width="1.5"/>
<circle id="Ellipse 395" cx="454.351" cy="-50.6527" r="484.25" transform="rotate(-46.2913 454.351 -50.6527)" stroke="#333842" stroke-opacity="0.24" stroke-width="1.5"/>
<circle id="Ellipse 396" cx="508.722" cy="-53.3918" r="484.25" transform="rotate(-46.2913 508.722 -53.3918)" stroke="#333842" stroke-opacity="0.24" stroke-width="1.5"/>
<circle id="Ellipse 397" cx="563.093" cy="-56.131" r="484.25" transform="rotate(-46.2913 563.093 -56.131)" stroke="#333842" stroke-opacity="0.24" stroke-width="1.5"/>
<circle id="Ellipse 398" cx="617.464" cy="-58.8708" r="484.25" transform="rotate(-46.2913 617.464 -58.8708)" stroke="#333842" stroke-opacity="0.24" stroke-width="1.5"/>
<circle id="Ellipse 399" cx="671.835" cy="-61.61" r="484.25" transform="rotate(-46.2913 671.835 -61.61)" stroke="#333842" stroke-opacity="0.24" stroke-width="1.5"/>
</g>
</g>
</g>
<g id="Frame 38582">
<g id="Frame 38581">
<g id="Frame 38578">
<g id="Frame 6">
<rect x="-137" y="-22" width="197" height="60" rx="30" fill="#F0E714"/>
<path id="Vector" fill-rule="evenodd" clip-rule="evenodd" d="M0 8.00003C0 7.77272 0.0903001 7.55471 0.251035 7.39398C0.41177 7.23324 0.629774 7.14294 0.857088 7.14294H21.0724L15.6779 1.75015C15.5169 1.58921 15.4265 1.37093 15.4265 1.14333C15.4265 0.915726 15.5169 0.697447 15.6779 0.536508C15.8388 0.37557 16.0571 0.285156 16.2847 0.285156C16.5123 0.285156 16.7306 0.37557 16.8915 0.536508L23.7482 7.39321C23.828 7.47283 23.8913 7.56741 23.9346 7.67154C23.9778 7.77567 24 7.88729 24 8.00003C24 8.11277 23.9778 8.2244 23.9346 8.32852C23.8913 8.43265 23.828 8.52723 23.7482 8.60685L16.8915 15.4636C16.7306 15.6245 16.5123 15.7149 16.2847 15.7149C16.0571 15.7149 15.8388 15.6245 15.6779 15.4636C15.5169 15.3026 15.4265 15.0843 15.4265 14.8567C15.4265 14.6291 15.5169 14.4109 15.6779 14.2499L21.0724 8.85712H0.857088C0.629774 8.85712 0.41177 8.76682 0.251035 8.60608C0.0903001 8.44535 0 8.22734 0 8.00003Z" fill="#24272E"/>
</g>
</g>
</g>
</g>
</g>
<defs>
<clipPath id="clip0_0_1">
<rect width="1440" height="6684" fill="white" transform="translate(-217 -505)"/>
</clipPath>
</defs>
</svg>
