<svg width="10" height="13" viewBox="0 0 10 13" fill="none" xmlns="http://www.w3.org/2000/svg">
<path d="M4.9987 12.9999C4.15666 12.2816 3.37616 11.4942 2.66537 10.6459C1.5987 9.3719 0.332032 7.47457 0.332032 5.66656C0.331569 4.74321 0.605037 3.84046 1.11783 3.07258C1.63062 2.3047 2.35968 1.7062 3.21274 1.35283C4.06581 0.999456 5.00453 0.907092 5.91011 1.08743C6.81569 1.26776 7.64742 1.71269 8.30003 2.3659C8.73454 2.79847 9.07893 3.31292 9.31329 3.87948C9.54765 4.44604 9.66732 5.05345 9.66537 5.66656C9.66537 7.47457 8.3987 9.3719 7.33203 10.6459C6.62123 11.4942 5.84074 12.2816 4.9987 12.9999ZM4.9987 3.66657C4.46827 3.66657 3.95956 3.87728 3.58448 4.25235C3.20941 4.62742 2.9987 5.13613 2.9987 5.66656C2.9987 6.197 3.20941 6.70571 3.58448 7.08078C3.95956 7.45585 4.46827 7.66656 4.9987 7.66656C5.52913 7.66656 6.03784 7.45585 6.41291 7.08078C6.78799 6.70571 6.9987 6.197 6.9987 5.66656C6.9987 5.13613 6.78799 4.62742 6.41291 4.25235C6.03784 3.87728 5.52913 3.66657 4.9987 3.66657Z" fill="#101C26"/>
</svg>
