<svg width="30" height="30" viewBox="0 0 30 30" fill="none" xmlns="http://www.w3.org/2000/svg">
<rect width="30" height="30" fill="#F5F5F5"/>
<g id="Desktop - 16" clip-path="url(#clip0_0_1)">
<rect width="1440" height="6684" transform="translate(-300 -498)" fill="#F3F4F6"/>
<g id="Group 2477">
<rect id="Rectangle 1644" x="-300" y="-498" width="1440" height="955" fill="#101C26"/>
<g id="BAground">
<g id="Group 2476">
<circle id="Ellipse 389" cx="45.1259" cy="-27.216" r="484.25" transform="rotate(-46.2913 45.1259 -27.216)" stroke="#333842" stroke-opacity="0.24" stroke-width="1.5"/>
<circle id="Ellipse 390" cx="99.4967" cy="-29.9552" r="484.25" transform="rotate(-46.2913 99.4967 -29.9552)" stroke="#333842" stroke-opacity="0.24" stroke-width="1.5"/>
<circle id="Ellipse 391" cx="153.868" cy="-32.694" r="484.25" transform="rotate(-46.2913 153.868 -32.694)" stroke="#333842" stroke-opacity="0.24" stroke-width="1.5"/>
<circle id="Ellipse 392" cx="208.238" cy="-35.4342" r="484.25" transform="rotate(-46.2913 208.238 -35.4342)" stroke="#333842" stroke-opacity="0.24" stroke-width="1.5"/>
<circle id="Ellipse 393" cx="262.609" cy="-38.1735" r="484.25" transform="rotate(-46.2913 262.609 -38.1735)" stroke="#333842" stroke-opacity="0.24" stroke-width="1.5"/>
<circle id="Ellipse 394" cx="316.98" cy="-40.9127" r="484.25" transform="rotate(-46.2913 316.98 -40.9127)" stroke="#333842" stroke-opacity="0.24" stroke-width="1.5"/>
<circle id="Ellipse 395" cx="371.351" cy="-43.6527" r="484.25" transform="rotate(-46.2913 371.351 -43.6527)" stroke="#333842" stroke-opacity="0.24" stroke-width="1.5"/>
<circle id="Ellipse 396" cx="425.722" cy="-46.3918" r="484.25" transform="rotate(-46.2913 425.722 -46.3918)" stroke="#333842" stroke-opacity="0.24" stroke-width="1.5"/>
<circle id="Ellipse 397" cx="480.093" cy="-49.131" r="484.25" transform="rotate(-46.2913 480.093 -49.131)" stroke="#333842" stroke-opacity="0.24" stroke-width="1.5"/>
<circle id="Ellipse 398" cx="534.464" cy="-51.8708" r="484.25" transform="rotate(-46.2913 534.464 -51.8708)" stroke="#333842" stroke-opacity="0.24" stroke-width="1.5"/>
<circle id="Ellipse 399" cx="588.835" cy="-54.61" r="484.25" transform="rotate(-46.2913 588.835 -54.61)" stroke="#333842" stroke-opacity="0.24" stroke-width="1.5"/>
<circle id="Ellipse 400" cx="643.206" cy="-57.3493" r="484.25" transform="rotate(-46.2913 643.206 -57.3493)" stroke="#333842" stroke-opacity="0.24" stroke-width="1.5"/>
<circle id="Ellipse 401" cx="694.719" cy="-59.2799" r="484.25" transform="rotate(-46.2913 694.719 -59.2799)" stroke="#333842" stroke-opacity="0.24" stroke-width="1.5"/>
</g>
</g>
</g>
<g id="Frame 38582">
<g id="Frame 38581">
<g id="Frame 38578">
<g id="Frame 38470">
<g id="Frame 38469">
<rect id="Rectangle 5" width="30" height="30" rx="15" fill="white"/>
<path id="Polygon 1" d="M19.75 13.701C20.75 14.2783 20.75 15.7217 19.75 16.299L13.75 19.7631C12.75 20.3405 11.5 19.6188 11.5 18.4641L11.5 11.5359C11.5 10.3812 12.75 9.65951 13.75 10.2369L19.75 13.701Z" fill="#2B303B"/>
</g>
</g>
</g>
</g>
</g>
</g>
<defs>
<clipPath id="clip0_0_1">
<rect width="1440" height="6684" fill="white" transform="translate(-300 -498)"/>
</clipPath>
</defs>
</svg>
