<svg width="20" height="20" viewBox="0 0 20 20" fill="none" xmlns="http://www.w3.org/2000/svg">
<rect width="20" height="20" fill="#1E1E1E"/>
<g id="Marketing solutions landing page design">
<rect width="1512" height="7280.19" transform="translate(-124 -6924)" fill="#0D0D11"/>
<g id="div">
<g id="div_2">
<g id="div_3">
<g id="div#w-node-_0dfbe7a0-261a-0002-65c5-22e86775eb21-6775eb1b">
<g id="div_4">
<g id="a#w-node-_0dfbe7a0-261a-0002-65c5-22e86775eb31-6775eb1b">
<g id="Frame">
<g id="Group">
<path id="Vector" d="M6.20499 3.74977C6.2048 4.1476 6.04657 4.52905 5.76512 4.81021C5.48368 5.09138 5.10207 5.24922 4.70424 5.24902C4.30642 5.24882 3.92497 5.0906 3.6438 4.80915C3.36264 4.52771 3.2048 4.1461 3.20499 3.74827C3.20519 3.35045 3.36342 2.969 3.64486 2.68783C3.92631 2.40667 4.30792 2.24882 4.70574 2.24902C5.10357 2.24922 5.48502 2.40745 5.76619 2.68889C6.04735 2.97034 6.20519 3.35195 6.20499 3.74977ZM6.24999 6.35977H3.24999V15.7498H6.24999V6.35977ZM10.99 6.35977H8.00499V15.7498H10.96V10.8223C10.96 8.07727 14.5375 7.82227 14.5375 10.8223V15.7498H17.5V9.80227C17.5 5.17477 12.205 5.34727 10.96 7.61977L10.99 6.35977Z" fill="#75757F"/>
</g>
</g>
<rect x="-7.5" y="-7.98438" width="35" height="35" rx="17.5" stroke="#81818B" stroke-opacity="0.9"/>
</g>
</g>
</g>
</g>
</g>
</g>
</g>
</svg>
